PathFileType	4	(X/Y/Z)	D:\TRACE\v60_Jaco2_6-2-23\BothDRS_Motion2_4-platform.trc
DataRate	CameraRate	NumFrames	NumMarkers	Units	OrigDataRate	OrigDataStartFrame	OrigNumFrames
100.00	100.00	      30	5	mm	100.00	938	      7500
Frame#	Time	Left_Front			Right_Front			Left_Aft			Right_Aft			Post			
		X1	Y1	Z1	X2	Y2	Z2	X3	Y3	Z3	X4	Y4	Z4	X5	Y5	Z5	

938	9.370	-805.59247	39.77655	-630.80939	764.46783	40.14946	-636.03021	-713.57452	-13.43445	503.34396	728.54303	-15.02802	512.34332	-18.71182	1351.64551	-894.79797	
939	9.380	-806.62610	38.46186	-631.02600	763.39758	39.07800	-636.25018	-714.71283	-12.47410	503.05029	727.30005	-13.93785	512.19312	-20.04806	1349.93713	-897.27069	
940	9.390	-807.98492	36.92772	-631.37714	762.21399	37.80375	-636.82172	-715.80774	-11.61367	502.61038	725.93475	-12.97784	511.97070	-21.21593	1348.26465	-899.75250	
941	9.400	-809.13287	35.59469	-631.63251	760.89777	36.44849	-637.17200	-716.97638	-10.82774	502.24200	725.18500	-12.03044	511.73526	-22.33513	1346.22009	-902.54144	
942	9.410	-810.19415	34.57577	-632.17316	759.91223	35.19303	-637.30780	-718.08411	-9.92215	501.94092	723.93408	-11.21090	511.44107	-23.85311	1344.47998	-905.21722	
943	9.420	-811.15039	33.35210	-632.69843	758.65466	33.86311	-637.81305	-719.03137	-8.99855	501.72064	722.92365	-10.25959	511.20258	-24.96683	1342.62634	-907.86761	
944	9.430	-812.51300	31.78951	-632.63025	757.56586	32.46173	-638.14935	-720.38403	-8.01539	501.52496	721.60132	-9.34832	511.03729	-26.18122	1340.85999	-911.05939	
945	9.440	-813.68341	30.53172	-633.16565	756.56946	31.30950	-638.45825	-721.61237	-6.76511	501.12299	720.55695	-8.41839	510.50024	-26.81589	1338.90247	-913.89355	
946	9.450	-814.76404	29.30981	-633.60315	755.34698	29.90198	-638.80188	-722.58594	-6.02613	501.00946	719.71545	-7.36176	510.33826	-27.85897	1336.89880	-917.32001	
947	9.460	-815.54895	27.59518	-634.06995	754.16980	28.28139	-639.34277	-723.81152	-4.91126	500.67850	718.35065	-6.46920	509.99057	-29.41531	1335.11279	-920.58771	
948	9.470	-817.06165	26.33463	-634.24420	752.97406	27.11868	-639.57202	-724.94281	-4.21423	500.46985	717.35034	-5.41873	509.62833	-30.83057	1333.08008	-923.72009	
949	9.480	-818.34802	25.10148	-634.64014	752.10400	25.65181	-640.02325	-726.14661	-3.09441	500.15179	716.11053	-4.53216	509.28107	-31.65118	1330.93079	-926.92651	
950	9.490	-819.26544	23.29766	-634.92572	750.60730	24.27836	-640.53644	-727.07916	-2.17229	499.93103	715.01910	-3.36849	509.13541	-32.77847	1328.81055	-930.34070	
951	9.500	-820.33258	22.36324	-635.18280	749.78540	22.99061	-640.62958	-728.32880	-0.97833	499.47089	713.89581	-2.16804	508.76740	-33.93736	1327.11475	-933.82672	
952	9.510	-821.28357	20.93661	-635.82935	748.72064	21.65706	-641.00488	-729.30487	-0.10721	499.22958	712.68610	-1.27359	508.40082	-34.64417	1325.00928	-936.76587	
953	9.520	-822.76019	19.36331	-635.97046	747.57001	20.13998	-641.53949	-730.42987	0.94265	498.81412	711.69061	-0.34054	508.06967	-35.92769	1322.96753	-939.78125	
954	9.530	-823.59430	17.85220	-636.37555	746.57288	18.82129	-641.82147	-731.62384	1.77582	498.52328	710.55121	0.68227	507.73431	-37.10410	1320.97827	-942.46393	
955	9.540	-824.59180	16.54523	-636.92151	745.49762	17.47097	-642.00867	-732.60449	2.87298	498.22510	709.82959	1.74588	507.46832	-38.43113	1318.98193	-945.37592	
956	9.550	-825.45398	14.98226	-636.89301	744.37695	16.13295	-642.38452	-733.68835	3.84993	497.80054	708.51056	2.68519	507.04837	-39.63435	1316.85217	-948.46924	
957	9.560	-826.86804	13.88515	-637.43134	743.25488	15.39340	-642.71057	-734.81012	4.78562	497.54987	707.75146	3.79913	506.68967	-40.27399	1314.59814	-951.21936	
958	9.570	-827.97406	12.62506	-637.73499	742.39148	13.60710	-643.20435	-735.64301	5.91098	497.20044	706.30011	4.91965	506.47583	-41.56006	1312.46033	-954.21399	
959	9.580	-828.85504	10.26721	-638.18182	741.24023	11.16215	-643.62823	-736.75525	6.99170	496.90720	705.06793	5.74908	506.18683	-42.90667	1310.62268	-957.28058	
960	9.590	-829.93671	8.91482	-638.63019	740.18463	9.89710	-644.05151	-737.77130	7.89156	496.55161	704.53076	7.19925	505.81299	-43.67443	1308.35376	-960.86829	
961	9.600	-830.63550	7.44564	-638.76666	739.41345	8.78977	-644.07465	-738.80682	8.75847	496.20068	703.26953	7.83766	505.53793	-44.53513	1306.09436	-964.31104	
962	9.610	-832.12152	6.38465	-639.22205	738.09259	7.64186	-644.46497	-739.84052	9.79165	495.95245	702.46588	8.88131	505.26413	-45.76533	1304.01917	-968.01202	
963	9.620	-833.01270	5.38410	-639.36200	737.17957	6.07951	-644.98773	-740.70105	10.76928	495.60614	701.40118	10.06956	504.93225	-46.50531	1302.21851	-971.97888	
964	9.630	-833.84753	3.66200	-639.64648	736.43610	4.86396	-645.24628	-741.68994	11.82271	495.29312	700.49323	10.91755	504.53598	-47.56836	1300.15112	-975.16693	
965	9.640	-834.73920	2.18684	-639.93683	735.32642	3.47152	-645.51294	-742.62537	12.67978	494.94690	699.46149	12.00464	504.22574	-48.79163	1298.25427	-978.45203	
966	9.650	-835.60931	0.77375	-640.57721	734.31049	2.01543	-645.75470	-743.60394	13.62178	494.55023	698.17926	12.90046	503.98715	-49.46918	1295.87476	-981.52893	
967	9.660	-836.77643	-0.43651	-640.77930	733.53461	0.64146	-646.03632	-744.68634	14.38106	494.33673	697.57922	13.66707	503.57431	-50.31960	1293.86206	-984.49390	
